<svg width="25" height="25" viewBox="0 0 25 25" fill="none" xmlns="http://www.w3.org/2000/svg">
<path d="M4.16667 23.9582C3.8904 23.9582 3.62545 23.8484 3.4301 23.6531C3.23475 23.4577 3.125 23.1928 3.125 22.9165V19.7915C3.125 19.5152 3.23475 19.2503 3.4301 19.0549C3.62545 18.8596 3.8904 18.7498 4.16667 18.7498C4.44293 18.7498 4.70789 18.8596 4.90324 19.0549C5.09859 19.2503 5.20833 19.5152 5.20833 19.7915V22.9165C5.20833 23.1928 5.09859 23.4577 4.90324 23.6531C4.70789 23.8484 4.44293 23.9582 4.16667 23.9582ZM13.5417 22.9165V15.6248C13.5417 15.3486 13.4319 15.0836 13.2366 14.8883C13.0412 14.6929 12.7763 14.5832 12.5 14.5832C12.2237 14.5832 11.9588 14.6929 11.7634 14.8883C11.5681 15.0836 11.4583 15.3486 11.4583 15.6248V22.9165C11.4583 23.1928 11.5681 23.4577 11.7634 23.6531C11.9588 23.8484 12.2237 23.9582 12.5 23.9582C12.7763 23.9582 13.0412 23.8484 13.2366 23.6531C13.4319 23.4577 13.5417 23.1928 13.5417 22.9165ZM20.8333 11.4582C20.5571 11.4582 20.2921 11.5679 20.0968 11.7633C19.9014 11.9586 19.7917 12.2236 19.7917 12.4998V22.9165C19.7917 23.1928 19.9014 23.4577 20.0968 23.6531C20.2921 23.8484 20.5571 23.9582 20.8333 23.9582C21.1096 23.9582 21.3746 23.8484 21.5699 23.6531C21.7653 23.4577 21.875 23.1928 21.875 22.9165V12.4998C21.875 12.2236 21.7653 11.9586 21.5699 11.7633C21.3746 11.5679 21.1096 11.4582 20.8333 11.4582ZM21.2312 1.12171C21.1052 1.0689 20.97 1.04164 20.8333 1.0415H16.6667C16.3904 1.0415 16.1254 1.15125 15.9301 1.3466C15.7347 1.54195 15.625 1.8069 15.625 2.08317C15.625 2.35944 15.7347 2.62439 15.9301 2.81974C16.1254 3.01509 16.3904 3.12484 16.6667 3.12484H18.3187L12.5 8.94359L9.06979 5.51338C8.87445 5.3181 8.60955 5.20839 8.33333 5.20839C8.05712 5.20839 7.79222 5.3181 7.59688 5.51338L3.43021 9.68005C3.24046 9.87651 3.13547 10.1396 3.13784 10.4128C3.14021 10.6859 3.24976 10.9471 3.4429 11.1403C3.63603 11.3334 3.89729 11.443 4.17042 11.4453C4.44354 11.4477 4.70666 11.3427 4.90312 11.153L8.33333 7.72275L11.7635 11.153C11.9589 11.3482 12.2238 11.4579 12.5 11.4579C12.7762 11.4579 13.0411 11.3482 13.2365 11.153L19.7917 4.59775V6.24984C19.7917 6.5261 19.9014 6.79106 20.0968 6.98641C20.2921 7.18176 20.5571 7.2915 20.8333 7.2915C21.1096 7.2915 21.3746 7.18176 21.5699 6.98641C21.7653 6.79106 21.875 6.5261 21.875 6.24984V2.08317C21.8748 1.87722 21.8135 1.67597 21.6989 1.50484C21.5843 1.33371 21.4216 1.20038 21.2312 1.12171Z" fill="#026451"/>
</svg>
