<svg width="244" height="58" viewBox="0 0 244 58" fill="none" xmlns="http://www.w3.org/2000/svg">
<path d="M2.28 40V19H5.73V40H2.28ZM4.65 31V27.85H15.33V31H4.65ZM4.65 22.15V19H15.84V22.15H4.65ZM24.9555 40.3C23.5155 40.3 22.2155 39.98 21.0555 39.34C19.9155 38.68 19.0055 37.78 18.3255 36.64C17.6655 35.5 17.3355 34.22 17.3355 32.8C17.3355 31.38 17.6655 30.11 18.3255 28.99C18.9855 27.85 19.8755 26.95 20.9955 26.29C22.1355 25.63 23.3955 25.3 24.7755 25.3C26.1155 25.3 27.2955 25.61 28.3155 26.23C29.3555 26.85 30.1655 27.7 30.7455 28.78C31.3455 29.86 31.6455 31.09 31.6455 32.47C31.6455 32.71 31.6255 32.96 31.5855 33.22C31.5655 33.46 31.5255 33.73 31.4655 34.03H19.6455V31.33H29.7555L28.5255 32.41C28.4855 31.53 28.3155 30.79 28.0155 30.19C27.7155 29.59 27.2855 29.13 26.7255 28.81C26.1855 28.49 25.5155 28.33 24.7155 28.33C23.8755 28.33 23.1455 28.51 22.5255 28.87C21.9055 29.23 21.4255 29.74 21.0855 30.4C20.7455 31.04 20.5755 31.81 20.5755 32.71C20.5755 33.61 20.7555 34.4 21.1155 35.08C21.4755 35.76 21.9855 36.29 22.6455 36.67C23.3055 37.03 24.0655 37.21 24.9255 37.21C25.6655 37.21 26.3455 37.08 26.9655 36.82C27.6055 36.56 28.1455 36.18 28.5855 35.68L30.6855 37.81C29.9855 38.63 29.1355 39.25 28.1355 39.67C27.1355 40.09 26.0755 40.3 24.9555 40.3ZM40.9809 40.3C39.5409 40.3 38.2409 39.98 37.0809 39.34C35.9409 38.68 35.0309 37.78 34.3509 36.64C33.6909 35.5 33.3609 34.22 33.3609 32.8C33.3609 31.38 33.6909 30.11 34.3509 28.99C35.0109 27.85 35.9009 26.95 37.0209 26.29C38.1609 25.63 39.4209 25.3 40.8009 25.3C42.1409 25.3 43.3209 25.61 44.3409 26.23C45.3809 26.85 46.1909 27.7 46.7709 28.78C47.3709 29.86 47.6709 31.09 47.6709 32.47C47.6709 32.71 47.6509 32.96 47.6109 33.22C47.5909 33.46 47.5509 33.73 47.4909 34.03H35.6709V31.33H45.7809L44.5509 32.41C44.5109 31.53 44.3409 30.79 44.0409 30.19C43.7409 29.59 43.3109 29.13 42.7509 28.81C42.2109 28.49 41.5409 28.33 40.7409 28.33C39.9009 28.33 39.1709 28.51 38.5509 28.87C37.9309 29.23 37.4509 29.74 37.1109 30.4C36.7709 31.04 36.6009 31.81 36.6009 32.71C36.6009 33.61 36.7809 34.4 37.1409 35.08C37.5009 35.76 38.0109 36.29 38.6709 36.67C39.3309 37.03 40.0909 37.21 40.9509 37.21C41.6909 37.21 42.3709 37.08 42.9909 36.82C43.6309 36.56 44.1709 36.18 44.6109 35.68L46.7109 37.81C46.0109 38.63 45.1609 39.25 44.1609 39.67C43.1609 40.09 42.1009 40.3 40.9809 40.3ZM56.3463 40.3C55.0463 40.3 53.8663 39.97 52.8063 39.31C51.7663 38.65 50.9363 37.76 50.3163 36.64C49.7163 35.5 49.4163 34.23 49.4163 32.83C49.4163 31.41 49.7163 30.14 50.3163 29.02C50.9363 27.88 51.7663 26.98 52.8063 26.32C53.8663 25.64 55.0463 25.3 56.3463 25.3C57.4463 25.3 58.4163 25.54 59.2563 26.02C60.1163 26.48 60.7963 27.12 61.2963 27.94C61.7963 28.76 62.0463 29.69 62.0463 30.73V34.87C62.0463 35.91 61.7963 36.84 61.2963 37.66C60.8163 38.48 60.1463 39.13 59.2863 39.61C58.4263 40.07 57.4463 40.3 56.3463 40.3ZM56.8863 37.18C57.7063 37.18 58.4163 37 59.0163 36.64C59.6363 36.26 60.1163 35.74 60.4563 35.08C60.7963 34.42 60.9663 33.66 60.9663 32.8C60.9663 31.94 60.7963 31.18 60.4563 30.52C60.1163 29.86 59.6363 29.35 59.0163 28.99C58.4163 28.61 57.7063 28.42 56.8863 28.42C56.0863 28.42 55.3763 28.61 54.7563 28.99C54.1563 29.35 53.6763 29.86 53.3163 30.52C52.9763 31.18 52.8063 31.94 52.8063 32.8C52.8063 33.66 52.9763 34.42 53.3163 35.08C53.6763 35.74 54.1563 36.26 54.7563 36.64C55.3763 37 56.0863 37.18 56.8863 37.18ZM64.0563 40H60.7563V36.13L61.3263 32.62L60.7563 29.14V18.4H64.0563V40ZM75.4287 40.3C74.3287 40.3 73.3487 40.07 72.4887 39.61C71.6287 39.13 70.9487 38.48 70.4487 37.66C69.9687 36.84 69.7287 35.91 69.7287 34.87V30.73C69.7287 29.69 69.9787 28.76 70.4787 27.94C70.9787 27.12 71.6587 26.48 72.5187 26.02C73.3787 25.54 74.3487 25.3 75.4287 25.3C76.7287 25.3 77.8987 25.64 78.9387 26.32C79.9987 26.98 80.8287 27.88 81.4287 29.02C82.0487 30.14 82.3587 31.41 82.3587 32.83C82.3587 34.23 82.0487 35.5 81.4287 36.64C80.8287 37.76 79.9987 38.65 78.9387 39.31C77.8987 39.97 76.7287 40.3 75.4287 40.3ZM74.8887 37.18C75.6887 37.18 76.3887 37 76.9887 36.64C77.6087 36.26 78.0887 35.74 78.4287 35.08C78.7887 34.42 78.9687 33.66 78.9687 32.8C78.9687 31.94 78.7887 31.18 78.4287 30.52C78.0887 29.86 77.6087 29.35 76.9887 28.99C76.3887 28.61 75.6887 28.42 74.8887 28.42C74.0887 28.42 73.3787 28.61 72.7587 28.99C72.1387 29.35 71.6587 29.86 71.3187 30.52C70.9787 31.18 70.8087 31.94 70.8087 32.8C70.8087 33.66 70.9787 34.42 71.3187 35.08C71.6587 35.74 72.1387 36.26 72.7587 36.64C73.3787 37 74.0887 37.18 74.8887 37.18ZM67.7187 40V18.4H71.0187V29.14L70.4487 32.62L71.0187 36.13V40H67.7187ZM91.151 40.3C89.851 40.3 88.671 39.97 87.611 39.31C86.571 38.65 85.741 37.76 85.121 36.64C84.521 35.5 84.221 34.23 84.221 32.83C84.221 31.41 84.521 30.14 85.121 29.02C85.741 27.88 86.571 26.98 87.611 26.32C88.671 25.64 89.851 25.3 91.151 25.3C92.251 25.3 93.221 25.54 94.061 26.02C94.921 26.48 95.601 27.12 96.101 27.94C96.601 28.76 96.851 29.69 96.851 30.73V34.87C96.851 35.91 96.601 36.84 96.101 37.66C95.621 38.48 94.951 39.13 94.091 39.61C93.231 40.07 92.251 40.3 91.151 40.3ZM91.691 37.18C92.911 37.18 93.891 36.77 94.631 35.95C95.391 35.13 95.771 34.08 95.771 32.8C95.771 31.94 95.601 31.18 95.261 30.52C94.921 29.86 94.441 29.35 93.821 28.99C93.221 28.61 92.511 28.42 91.691 28.42C90.891 28.42 90.181 28.61 89.561 28.99C88.961 29.35 88.481 29.86 88.121 30.52C87.781 31.18 87.611 31.94 87.611 32.8C87.611 33.66 87.781 34.42 88.121 35.08C88.481 35.74 88.961 36.26 89.561 36.64C90.181 37 90.891 37.18 91.691 37.18ZM95.561 40V36.13L96.131 32.62L95.561 29.14V25.6H98.861V40H95.561ZM109.153 40.3C107.733 40.3 106.443 39.97 105.283 39.31C104.143 38.65 103.243 37.75 102.583 36.61C101.923 35.47 101.593 34.2 101.593 32.8C101.593 31.38 101.923 30.11 102.583 28.99C103.243 27.85 104.143 26.95 105.283 26.29C106.443 25.63 107.733 25.3 109.153 25.3C110.273 25.3 111.313 25.52 112.273 25.96C113.253 26.38 114.083 26.99 114.763 27.79L112.603 29.98C112.183 29.48 111.673 29.11 111.073 28.87C110.493 28.61 109.853 28.48 109.153 28.48C108.333 28.48 107.603 28.67 106.963 29.05C106.343 29.41 105.853 29.91 105.493 30.55C105.153 31.19 104.983 31.94 104.983 32.8C104.983 33.64 105.153 34.39 105.493 35.05C105.853 35.69 106.343 36.2 106.963 36.58C107.603 36.94 108.333 37.12 109.153 37.12C109.853 37.12 110.493 37 111.073 36.76C111.673 36.5 112.183 36.12 112.603 35.62L114.763 37.81C114.083 38.61 113.253 39.23 112.273 39.67C111.313 40.09 110.273 40.3 109.153 40.3ZM126.293 40L120.203 32.65L126.263 25.6H130.193L123.232 33.52L123.383 31.63L130.493 40H126.293ZM117.143 40V18.4H120.443V40H117.143Z" fill="#026451"/>
<path d="M173.13 40.3C171.47 40.3 170.06 40 168.9 39.4C167.74 38.8 166.7 37.92 165.78 36.76L168.12 34.42C168.7 35.26 169.39 35.92 170.19 36.4C170.99 36.86 172.01 37.09 173.25 37.09C174.41 37.09 175.33 36.85 176.01 36.37C176.71 35.89 177.06 35.23 177.06 34.39C177.06 33.69 176.88 33.12 176.52 32.68C176.16 32.24 175.68 31.88 175.08 31.6C174.5 31.3 173.85 31.04 173.13 30.82C172.43 30.58 171.72 30.32 171 30.04C170.3 29.74 169.65 29.37 169.05 28.93C168.47 28.49 168 27.92 167.64 27.22C167.28 26.52 167.1 25.63 167.1 24.55C167.1 23.31 167.4 22.26 168 21.4C168.62 20.52 169.45 19.85 170.49 19.39C171.53 18.93 172.69 18.7 173.97 18.7C175.35 18.7 176.58 18.97 177.66 19.51C178.76 20.05 179.65 20.74 180.33 21.58L177.99 23.92C177.39 23.24 176.76 22.74 176.1 22.42C175.46 22.08 174.72 21.91 173.88 21.91C172.84 21.91 172.02 22.12 171.42 22.54C170.84 22.96 170.55 23.55 170.55 24.31C170.55 24.95 170.73 25.47 171.09 25.87C171.45 26.25 171.92 26.58 172.5 26.86C173.1 27.12 173.75 27.37 174.45 27.61C175.17 27.85 175.88 28.12 176.58 28.42C177.3 28.72 177.95 29.11 178.53 29.59C179.13 30.05 179.61 30.65 179.97 31.39C180.33 32.13 180.51 33.06 180.51 34.18C180.51 36.06 179.84 37.55 178.5 38.65C177.18 39.75 175.39 40.3 173.13 40.3ZM193.37 40V31.69C193.37 30.73 193.06 29.94 192.44 29.32C191.84 28.7 191.06 28.39 190.1 28.39C189.46 28.39 188.89 28.53 188.39 28.81C187.89 29.09 187.5 29.48 187.22 29.98C186.94 30.48 186.8 31.05 186.8 31.69L185.51 30.97C185.51 29.87 185.75 28.9 186.23 28.06C186.71 27.2 187.37 26.53 188.21 26.05C189.07 25.55 190.03 25.3 191.09 25.3C192.17 25.3 193.13 25.54 193.97 26.02C194.81 26.5 195.47 27.17 195.95 28.03C196.43 28.87 196.67 29.85 196.67 30.97V40H193.37ZM183.5 40V18.4H186.8V40H183.5ZM206.053 40.3C204.753 40.3 203.573 39.97 202.513 39.31C201.473 38.65 200.643 37.76 200.023 36.64C199.423 35.5 199.123 34.23 199.123 32.83C199.123 31.41 199.423 30.14 200.023 29.02C200.643 27.88 201.473 26.98 202.513 26.32C203.573 25.64 204.753 25.3 206.053 25.3C207.153 25.3 208.123 25.54 208.963 26.02C209.823 26.48 210.503 27.12 211.003 27.94C211.503 28.76 211.753 29.69 211.753 30.73V34.87C211.753 35.91 211.503 36.84 211.003 37.66C210.523 38.48 209.853 39.13 208.993 39.61C208.133 40.07 207.153 40.3 206.053 40.3ZM206.593 37.18C207.813 37.18 208.793 36.77 209.533 35.95C210.293 35.13 210.673 34.08 210.673 32.8C210.673 31.94 210.503 31.18 210.163 30.52C209.823 29.86 209.343 29.35 208.723 28.99C208.123 28.61 207.413 28.42 206.593 28.42C205.793 28.42 205.083 28.61 204.463 28.99C203.863 29.35 203.383 29.86 203.023 30.52C202.683 31.18 202.513 31.94 202.513 32.8C202.513 33.66 202.683 34.42 203.023 35.08C203.383 35.74 203.863 36.26 204.463 36.64C205.083 37 205.793 37.18 206.593 37.18ZM210.463 40V36.13L211.033 32.62L210.463 29.14V25.6H213.763V40H210.463ZM217.426 40V25.6H220.726V40H217.426ZM220.726 31.99L219.586 31.42C219.586 29.6 219.986 28.13 220.786 27.01C221.606 25.87 222.836 25.3 224.476 25.3C225.196 25.3 225.846 25.43 226.426 25.69C227.006 25.95 227.546 26.37 228.046 26.95L225.886 29.17C225.626 28.89 225.336 28.69 225.016 28.57C224.696 28.45 224.326 28.39 223.906 28.39C222.986 28.39 222.226 28.68 221.626 29.26C221.026 29.84 220.726 30.75 220.726 31.99ZM235.893 40.3C234.453 40.3 233.153 39.98 231.993 39.34C230.853 38.68 229.943 37.78 229.263 36.64C228.603 35.5 228.273 34.22 228.273 32.8C228.273 31.38 228.603 30.11 229.263 28.99C229.923 27.85 230.813 26.95 231.933 26.29C233.073 25.63 234.333 25.3 235.713 25.3C237.053 25.3 238.233 25.61 239.253 26.23C240.293 26.85 241.103 27.7 241.683 28.78C242.283 29.86 242.583 31.09 242.583 32.47C242.583 32.71 242.563 32.96 242.523 33.22C242.503 33.46 242.463 33.73 242.403 34.03H230.583V31.33H240.693L239.463 32.41C239.423 31.53 239.253 30.79 238.953 30.19C238.653 29.59 238.223 29.13 237.663 28.81C237.123 28.49 236.453 28.33 235.653 28.33C234.813 28.33 234.083 28.51 233.463 28.87C232.843 29.23 232.363 29.74 232.023 30.4C231.683 31.04 231.513 31.81 231.513 32.71C231.513 33.61 231.693 34.4 232.053 35.08C232.413 35.76 232.923 36.29 233.583 36.67C234.243 37.03 235.003 37.21 235.863 37.21C236.603 37.21 237.283 37.08 237.903 36.82C238.543 36.56 239.083 36.18 239.523 35.68L241.623 37.81C240.923 38.63 240.073 39.25 239.073 39.67C238.073 40.09 237.013 40.3 235.893 40.3Z" fill="#026451"/>
<path d="M142.282 51.5539C141.964 51.8685 141.585 52.0167 141.144 51.9985C140.702 51.9817 140.322 51.816 140.005 51.5015C139.722 51.2218 139.563 50.8723 139.528 50.4528C139.493 50.0334 139.599 49.6664 139.846 49.3518L150.119 35.1954L132.962 33.5701C132.044 33.5002 131.434 33.0283 131.134 32.1544C130.834 31.2806 131.038 30.5465 131.744 29.9523L153.72 10.448C154.037 10.1334 154.417 9.9845 154.859 10.0013C155.3 10.0195 155.679 10.1858 155.997 10.5004C156.279 10.78 156.438 11.1296 156.473 11.549C156.508 11.9685 156.403 12.3355 156.155 12.6501L145.882 26.8065L163.039 28.4318C163.957 28.5017 164.566 28.9736 164.865 29.8475C165.166 30.7213 164.963 31.4553 164.257 32.0496L142.282 51.5539Z" fill="#C4FFF4"/>
</svg>
