<svg width="25" height="25" viewBox="0 0 25 25" fill="none" xmlns="http://www.w3.org/2000/svg">
<g clip-path="url(#clip0_1115_2765)">
<path d="M11.7189 11.7181C11.2875 12.1495 11.2875 12.849 11.7189 13.2804C12.1503 13.7118 12.8497 13.7118 13.2811 13.2804C13.7125 12.849 13.7125 12.1495 13.2811 11.7181C12.8497 11.2867 12.1503 11.2867 11.7189 11.7181Z" stroke="#026451" stroke-width="2" stroke-miterlimit="10" stroke-linecap="round" stroke-linejoin="round"/>
<path d="M23.4375 16.9349C23.4375 18.0509 22.8181 19.0746 21.8295 19.5924L13.892 23.7502C13.0202 24.2069 11.9798 24.2069 11.108 23.7502L3.17048 19.5924C2.18193 19.0746 1.5625 18.0509 1.5625 16.9349V8.06538C1.5625 6.94943 2.18193 5.9257 3.17048 5.40789L11.108 1.25015C11.9798 0.793475 13.0202 0.793476 13.892 1.25015L21.8295 5.40789C22.8181 5.9257 23.4375 6.94943 23.4375 8.06538V16.9349Z" stroke="#026451" stroke-width="2" stroke-miterlimit="10" stroke-linejoin="round"/>
<path d="M15.4392 16.4174C14.8883 16.9132 14.1734 17.1875 13.4323 17.1875H11.568C10.8269 17.1875 10.112 16.9132 9.56114 16.4174L7.68614 14.7299C6.362 13.5382 6.362 11.4618 7.68614 10.2701L9.56114 8.58262C10.112 8.08683 10.8269 7.8125 11.568 7.8125H13.4323C14.1734 7.8125 14.8883 8.08683 15.4392 8.58262L17.3142 10.2701C18.6383 11.4618 18.6383 13.5382 17.3142 14.7299L15.4392 16.4174Z" stroke="#026451" stroke-width="2" stroke-miterlimit="10" stroke-linecap="round" stroke-linejoin="round"/>
</g>
<defs>
<clipPath id="clip0_1115_2765">
<rect width="25" height="25" fill="white"/>
</clipPath>
</defs>
</svg>
